<svg width="40" height="40" viewBox="0 0 40 40" fill="none" xmlns="http://www.w3.org/2000/svg">
<path d="M8.3335 8.33325H30.0002C31.3262 8.33325 32.598 8.86004 33.5357 9.79772C34.4734 10.7354 35.0002 12.0072 35.0002 13.3333V28.3333C35.0002 29.6593 34.4734 30.9311 33.5357 31.8688C32.598 32.8065 31.3262 33.3333 30.0002 33.3333H8.3335C7.00741 33.3333 5.73564 32.8065 4.79796 31.8688C3.86028 30.9311 3.3335 29.6593 3.3335 28.3333V13.3333C3.3335 12.0072 3.86028 10.7354 4.79796 9.79772C5.73564 8.86004 7.00741 8.33325 8.3335 8.33325ZM8.3335 9.99992C7.50016 9.99992 6.76683 10.2833 6.20016 10.7833L19.1668 19.1666L32.1335 10.7833C31.5668 10.2833 30.8335 9.99992 30.0002 9.99992H8.3335ZM19.1668 21.1833L5.21683 12.1333C5.0835 12.4999 5.00016 12.9166 5.00016 13.3333V28.3333C5.00016 29.2173 5.35135 30.0652 5.97647 30.6903C6.60159 31.3154 7.44944 31.6666 8.3335 31.6666H30.0002C30.8842 31.6666 31.7321 31.3154 32.3572 30.6903C32.9823 30.0652 33.3335 29.2173 33.3335 28.3333V13.3333C33.3335 12.9166 33.2502 12.4999 33.1168 12.1333L19.1668 21.1833Z" fill="white"/>
</svg>
