<svg width="40" height="40" viewBox="0 0 40 40" fill="none" xmlns="http://www.w3.org/2000/svg">
<path d="M21.499 19.994L32.755 8.72699C32.9536 8.52743 33.065 8.25731 33.0648 7.97578C33.0646 7.69426 32.9528 7.42428 32.754 7.22499C32.356 6.82899 31.655 6.82699 31.253 7.22699L20 18.494L8.74299 7.22399C8.34299 6.82899 7.64199 6.83099 7.24399 7.22599C7.1452 7.32438 7.067 7.44147 7.01395 7.57041C6.96089 7.69935 6.93405 7.83756 6.93499 7.97699C6.93499 8.26099 7.04499 8.52699 7.24399 8.72399L18.5 19.993L7.24499 31.263C7.04638 31.4629 6.93515 31.7333 6.93571 32.0151C6.93627 32.2969 7.04858 32.5669 7.24799 32.766C7.44099 32.957 7.71399 33.067 7.99599 33.067H8.00199C8.28499 33.066 8.55799 32.955 8.74699 32.762L20 21.495L31.257 32.765C31.456 32.963 31.722 33.073 32.004 33.073C32.1434 33.0734 32.2816 33.0462 32.4105 32.993C32.5394 32.9399 32.6565 32.8617 32.7551 32.7631C32.8537 32.6645 32.9319 32.5474 32.985 32.4185C33.0382 32.2896 33.0654 32.1514 33.065 32.012C33.065 31.729 32.955 31.462 32.755 31.265L21.499 19.994Z" fill="#333333"/>
</svg>
