<svg width="40" height="41" viewBox="0 0 40 41" fill="none" xmlns="http://www.w3.org/2000/svg">
<path d="M27.8127 5.925H27.8125C24.5154 5.925 21.6465 7.43944 20 9.97642C18.3535 7.43944 15.4846 5.925 12.1875 5.925L12.1873 5.925C9.73166 5.92796 7.37749 6.90475 5.64112 8.64112C3.90475 10.3775 2.92796 12.7317 2.925 15.1873V15.1875C2.925 19.7415 5.79054 24.4609 11.3386 29.2128L11.3391 29.2132C13.9028 31.3949 16.671 33.3242 19.6051 34.9743L19.6081 34.976C19.7285 35.041 19.8632 35.075 20 35.075C20.1368 35.075 20.2715 35.041 20.3919 34.976L20.3919 34.976L20.3949 34.9743C23.329 33.3242 26.0972 31.3949 28.6609 29.2133L28.6614 29.2128C34.2095 24.4609 37.075 19.7415 37.075 15.1875V15.1873C37.072 12.7317 36.0952 10.3775 34.3589 8.64112C32.6225 6.90475 30.2683 5.92796 27.8127 5.925ZM19.2368 12.0617L19.2369 12.0619C19.299 12.2132 19.4048 12.3427 19.5406 12.4337C19.6765 12.5248 19.8364 12.5735 20 12.5735C20.1636 12.5735 20.3235 12.5248 20.4594 12.4337C20.5952 12.3427 20.701 12.2132 20.7631 12.0619L20.7632 12.0617C21.8937 9.30002 24.5875 7.57502 27.8125 7.575C29.8307 7.57747 31.7655 8.38029 33.1926 9.80739C34.6198 11.2345 35.4226 13.1695 35.425 15.1877C35.4249 19.6269 32.1262 23.851 28.4984 27.1449C24.9834 30.3363 21.2091 32.6103 20 33.304C18.7908 32.6104 15.0165 30.339 11.5016 27.149C7.87381 23.8565 4.57502 19.6323 4.575 15.1875C4.57747 13.1693 5.38029 11.2345 6.80739 9.80739C8.23449 8.38029 10.1693 7.57747 12.1875 7.575C15.4125 7.57502 18.1063 9.30002 19.2368 12.0617Z" fill="#333333" stroke="black" stroke-width="0.4"/>
</svg>
