<svg width="50" height="50" viewBox="0 0 50 50" fill="none" xmlns="http://www.w3.org/2000/svg">
<path d="M25 42.5L24.2 41.6C23.7 41.1 12 27.3 12 19C12 11.8 17.8 6 25 6C32.2 6 38 11.8 38 19C38 27.3 26.3 41.1 25.8 41.7L25 42.5ZM25 8C18.9 8 14 12.9 14 19C14 25.4 22.4 36.2 25 39.4C27.6 36.2 36 25.4 36 19C36 12.9 31.1 8 25 8Z" fill="white"/>
<path d="M25 24C22.2 24 20 21.8 20 19C20 16.2 22.2 14 25 14C27.8 14 30 16.2 30 19C30 21.8 27.8 24 25 24ZM25 16C23.3 16 22 17.3 22 19C22 20.7 23.3 22 25 22C26.7 22 28 20.7 28 19C28 17.3 26.7 16 25 16Z" fill="white"/>
</svg>
