<svg width="46" height="51" viewBox="0 0 46 51" fill="none" xmlns="http://www.w3.org/2000/svg">
<path d="M21.52 46C20.176 46 19.504 45.328 19.504 43.984V34.192L8.512 16.672C7.84 15.52 8.048 14.576 9.136 13.84C10.288 13.136 11.216 13.344 11.92 14.464L21.52 29.872L31.6 14.464C31.936 13.936 32.344 13.624 32.824 13.528C33.304 13.416 33.808 13.552 34.336 13.936C35.504 14.656 35.712 15.568 34.96 16.672L23.536 34.192V43.984C23.536 45.328 22.864 46 21.52 46Z" fill="#53377A"/>
<path d="M11.976 46C11.096 46 10.472 45.424 10.104 44.272L1.224 16.144C1.032 15.536 1.12 14.928 1.488 14.32C1.872 13.712 2.424 13.408 3.144 13.408C3.528 13.408 3.896 13.536 4.248 13.792C4.6 14.032 4.856 14.416 5.016 14.944L12.84 39.856H11.784L19.224 15.184C19.4 14.608 19.696 14.176 20.112 13.888C20.544 13.6 20.984 13.456 21.432 13.456C21.912 13.456 22.376 13.6 22.824 13.888C23.272 14.176 23.576 14.608 23.736 15.184L31.176 39.856H30.12L37.944 14.944C38.12 14.416 38.368 14.04 38.688 13.816C39.024 13.576 39.384 13.456 39.768 13.456C40.472 13.456 41.032 13.728 41.448 14.272C41.864 14.816 41.96 15.44 41.736 16.144L32.856 44.272C32.472 45.424 31.768 46 30.744 46H30.648C29.576 46 28.872 45.424 28.536 44.272L20.808 19.264H21.864L14.088 44.272C13.928 44.848 13.688 45.28 13.368 45.568C13.064 45.856 12.6 46 11.976 46Z" fill="#53377A"/>
</svg>
