<svg width="24" height="26" viewBox="0 0 24 26" fill="none" xmlns="http://www.w3.org/2000/svg">
<path d="M22.75 4H17.5V2.75C17.5 2.02065 17.2103 1.32118 16.6945 0.805456C16.1788 0.289731 15.4793 0 14.75 0H8.75C8.02065 0 7.32118 0.289731 6.80546 0.805456C6.28973 1.32118 6 2.02065 6 2.75V4H0.75C0.551088 4 0.360322 4.07902 0.21967 4.21967C0.0790175 4.36032 0 4.55109 0 4.75C0 4.94891 0.0790175 5.13968 0.21967 5.28033C0.360322 5.42098 0.551088 5.5 0.75 5.5H2V23.75C2 24.2141 2.18437 24.6592 2.51256 24.9874C2.84075 25.3156 3.28587 25.5 3.75 25.5H19.75C20.2141 25.5 20.6592 25.3156 20.9874 24.9874C21.3156 24.6592 21.5 24.2141 21.5 23.75V5.5H22.75C22.9489 5.5 23.1397 5.42098 23.2803 5.28033C23.421 5.13968 23.5 4.94891 23.5 4.75C23.5 4.55109 23.421 4.36032 23.2803 4.21967C23.1397 4.07902 22.9489 4 22.75 4ZM7.5 2.75C7.5 2.41848 7.6317 2.10054 7.86612 1.86612C8.10054 1.6317 8.41848 1.5 8.75 1.5H14.75C15.0815 1.5 15.3995 1.6317 15.6339 1.86612C15.8683 2.10054 16 2.41848 16 2.75V4H7.5V2.75ZM20 23.75C20 23.8163 19.9737 23.8799 19.9268 23.9268C19.8799 23.9737 19.8163 24 19.75 24H3.75C3.6837 24 3.62011 23.9737 3.57322 23.9268C3.52634 23.8799 3.5 23.8163 3.5 23.75V5.5H20V23.75ZM9.5 10.75V18.75C9.5 18.9489 9.42098 19.1397 9.28033 19.2803C9.13968 19.421 8.94891 19.5 8.75 19.5C8.55109 19.5 8.36032 19.421 8.21967 19.2803C8.07902 19.1397 8 18.9489 8 18.75V10.75C8 10.5511 8.07902 10.3603 8.21967 10.2197C8.36032 10.079 8.55109 10 8.75 10C8.94891 10 9.13968 10.079 9.28033 10.2197C9.42098 10.3603 9.5 10.5511 9.5 10.75ZM15.5 10.75V18.75C15.5 18.9489 15.421 19.1397 15.2803 19.2803C15.1397 19.421 14.9489 19.5 14.75 19.5C14.5511 19.5 14.3603 19.421 14.2197 19.2803C14.079 19.1397 14 18.9489 14 18.75V10.75C14 10.5511 14.079 10.3603 14.2197 10.2197C14.3603 10.079 14.5511 10 14.75 10C14.9489 10 15.1397 10.079 15.2803 10.2197C15.421 10.3603 15.5 10.5511 15.5 10.75Z" fill="#333333"/>
</svg>
