<svg width="32" height="32" viewBox="0 0 32 32" fill="none" xmlns="http://www.w3.org/2000/svg">
<path d="M27 6.25H21.75V5C21.75 4.27065 21.4603 3.57118 20.9445 3.05546C20.4288 2.53973 19.7293 2.25 19 2.25H13C12.2707 2.25 11.5712 2.53973 11.0555 3.05546C10.5397 3.57118 10.25 4.27065 10.25 5V6.25H5C4.80109 6.25 4.61032 6.32902 4.46967 6.46967C4.32902 6.61032 4.25 6.80109 4.25 7C4.25 7.19891 4.32902 7.38968 4.46967 7.53033C4.61032 7.67098 4.80109 7.75 5 7.75H6.25V26C6.25 26.4641 6.43437 26.9092 6.76256 27.2374C7.09075 27.5656 7.53587 27.75 8 27.75H24C24.4641 27.75 24.9092 27.5656 25.2374 27.2374C25.5656 26.9092 25.75 26.4641 25.75 26V7.75H27C27.1989 7.75 27.3897 7.67098 27.5303 7.53033C27.671 7.38968 27.75 7.19891 27.75 7C27.75 6.80109 27.671 6.61032 27.5303 6.46967C27.3897 6.32902 27.1989 6.25 27 6.25ZM11.75 5C11.75 4.66848 11.8817 4.35054 12.1161 4.11612C12.3505 3.8817 12.6685 3.75 13 3.75H19C19.3315 3.75 19.6495 3.8817 19.8839 4.11612C20.1183 4.35054 20.25 4.66848 20.25 5V6.25H11.75V5ZM24.25 26C24.25 26.0663 24.2237 26.1299 24.1768 26.1768C24.1299 26.2237 24.0663 26.25 24 26.25H8C7.9337 26.25 7.87011 26.2237 7.82322 26.1768C7.77634 26.1299 7.75 26.0663 7.75 26V7.75H24.25V26ZM13.75 13V21C13.75 21.1989 13.671 21.3897 13.5303 21.5303C13.3897 21.671 13.1989 21.75 13 21.75C12.8011 21.75 12.6103 21.671 12.4697 21.5303C12.329 21.3897 12.25 21.1989 12.25 21V13C12.25 12.8011 12.329 12.6103 12.4697 12.4697C12.6103 12.329 12.8011 12.25 13 12.25C13.1989 12.25 13.3897 12.329 13.5303 12.4697C13.671 12.6103 13.75 12.8011 13.75 13ZM19.75 13V21C19.75 21.1989 19.671 21.3897 19.5303 21.5303C19.3897 21.671 19.1989 21.75 19 21.75C18.8011 21.75 18.6103 21.671 18.4697 21.5303C18.329 21.3897 18.25 21.1989 18.25 21V13C18.25 12.8011 18.329 12.6103 18.4697 12.4697C18.6103 12.329 18.8011 12.25 19 12.25C19.1989 12.25 19.3897 12.329 19.5303 12.4697C19.671 12.6103 19.75 12.8011 19.75 13Z" fill="#333333"/>
</svg>
