<svg width="40" height="40" viewBox="0 0 40 40" fill="none" xmlns="http://www.w3.org/2000/svg">
<path d="M34.4969 25.3327L27.1188 22.0311C26.8327 21.9074 26.5204 21.8568 26.2099 21.8841C25.8995 21.9114 25.6007 22.0156 25.3406 22.1874C25.3199 22.2006 25.3 22.2152 25.2813 22.2311L21.4063 25.5343C21.32 25.5869 21.2222 25.6174 21.1213 25.6231C21.0205 25.6288 20.9198 25.6096 20.8281 25.5671C18.2906 24.3421 15.6641 21.7358 14.4391 19.228C14.3957 19.1371 14.3756 19.0368 14.3805 18.9362C14.3854 18.8356 14.4152 18.7377 14.4672 18.6515L17.7797 14.7124C17.7953 14.6936 17.8094 14.6733 17.8235 14.653C17.9947 14.3933 18.0986 14.0951 18.1259 13.7853C18.1532 13.4754 18.1029 13.1636 17.9797 12.878L14.6719 5.51239C14.5122 5.13934 14.2358 4.82816 13.8842 4.62559C13.5326 4.42301 13.1247 4.33998 12.7219 4.38895C10.7556 4.6482 8.95091 5.61436 7.64491 7.10698C6.33891 8.59959 5.62091 10.5166 5.62502 12.4999C5.62502 24.5624 15.4375 34.3749 27.5 34.3749C29.4833 34.379 31.4003 33.661 32.8929 32.355C34.3855 31.049 35.3517 29.2443 35.611 27.278C35.6596 26.877 35.5774 26.4711 35.3767 26.1205C35.1759 25.77 34.8674 25.4937 34.4969 25.3327ZM34.375 27.1218C34.1544 28.787 33.3348 30.3149 32.0695 31.4197C30.8042 32.5245 29.1798 33.1307 27.5 33.1249C16.1281 33.1249 6.87502 23.8718 6.87502 12.4999C6.8692 10.8201 7.47538 9.19573 8.58022 7.93043C9.68505 6.66512 11.2129 5.84553 12.8781 5.62489C12.9031 5.62334 12.9282 5.62334 12.9531 5.62489C13.0764 5.62594 13.1967 5.66344 13.2987 5.73267C13.4008 5.8019 13.48 5.89977 13.5266 6.01395L16.825 13.3796C16.8635 13.4696 16.8803 13.5674 16.8741 13.6651C16.8678 13.7628 16.8387 13.8577 16.7891 13.9421L13.4781 17.8796C13.4625 17.8999 13.4469 17.9186 13.4328 17.9405C13.2564 18.2103 13.1526 18.5209 13.1312 18.8425C13.1099 19.1641 13.1718 19.4858 13.311 19.7765C14.6688 22.5561 17.4688 25.3358 20.2797 26.6936C20.5724 26.8319 20.8959 26.8921 21.2187 26.8683C21.5415 26.8444 21.8527 26.7375 22.1219 26.5577L22.1797 26.514L26.0594 23.214C26.1424 23.1632 26.2362 23.133 26.3332 23.1256C26.4302 23.1183 26.5275 23.1341 26.6172 23.1718L33.9938 26.478C34.1183 26.5298 34.2226 26.6205 34.2914 26.7365C34.3601 26.8526 34.3894 26.9877 34.375 27.1218Z" fill="white"/>
</svg>
