<svg width="24" height="24" viewBox="0 0 24 24" fill="none" xmlns="http://www.w3.org/2000/svg">
<path d="M22.0519 23L13.643 14.5921C12.9716 15.1641 12.1994 15.6067 11.3266 15.92C10.4537 16.2333 9.57637 16.3899 8.69456 16.3899C6.5442 16.3899 4.72419 15.6456 3.23451 14.157C1.74484 12.6675 1 10.8482 1 8.69899C1 6.54979 1.74394 4.72955 3.23183 3.23827C4.7206 1.74609 6.53973 1 8.68919 1C10.8396 1 12.6605 1.74475 14.1519 3.23424C15.6434 4.72373 16.3891 6.54397 16.3891 8.69497C16.3891 9.62769 16.224 10.5304 15.8936 11.4032C15.5624 12.2759 15.1282 13.0225 14.591 13.6428L23 22.0494L22.0519 23ZM8.69456 15.0459C10.4761 15.0459 11.9805 14.4327 13.2079 13.2064C14.4344 11.9801 15.0476 10.4758 15.0476 8.69362C15.0476 6.91232 14.4344 5.4085 13.2079 4.18218C11.9814 2.95585 10.4774 2.34269 8.6959 2.34269C6.91438 2.34269 5.40994 2.95585 4.18257 4.18218C2.95609 5.4085 2.34286 6.91232 2.34286 8.69362C2.34286 10.4749 2.95609 11.9787 4.18257 13.2051C5.40904 14.4314 6.91304 15.0459 8.69456 15.0459Z" fill="#F3F3F3"/>
</svg>
