<svg width="45" height="45" viewBox="0 0 45 45" fill="none" xmlns="http://www.w3.org/2000/svg">
<path d="M12.4031 39.375C11.5406 39.375 10.8206 39.0863 10.2431 38.5088C9.66437 37.93 9.375 37.2094 9.375 36.3469V16.1531C9.375 15.2906 9.66437 14.5706 10.2431 13.9931C10.8206 13.4144 11.5406 13.125 12.4031 13.125H15.9375V12.1875C15.9375 10.365 16.5756 8.81562 17.8519 7.53937C19.1281 6.26312 20.6775 5.625 22.5 5.625C24.3225 5.625 25.8719 6.26312 27.1481 7.53937C28.4244 8.81562 29.0625 10.365 29.0625 12.1875V13.125H32.5969C33.4594 13.125 34.1794 13.4144 34.7569 13.9931C35.3356 14.5706 35.625 15.2906 35.625 16.1531V36.3469C35.625 37.2094 35.3363 37.9294 34.7588 38.5069C34.18 39.0856 33.4594 39.375 32.5969 39.375H12.4031ZM12.4031 37.5H32.5969C32.8844 37.5 33.1488 37.38 33.39 37.14C33.63 36.8988 33.75 36.6344 33.75 36.3469V16.1531C33.75 15.8656 33.63 15.6013 33.39 15.36C33.1488 15.12 32.8844 15 32.5969 15H29.0625V19.6875C29.0625 19.9537 28.9731 20.1769 28.7944 20.3569C28.6144 20.5356 28.3913 20.625 28.125 20.625C27.8587 20.625 27.6356 20.5356 27.4556 20.3569C27.2769 20.1769 27.1875 19.9537 27.1875 19.6875V15H17.8125V19.6875C17.8125 19.9537 17.7231 20.1769 17.5444 20.3569C17.3644 20.5356 17.1413 20.625 16.875 20.625C16.6087 20.625 16.3856 20.5356 16.2056 20.3569C16.0269 20.1769 15.9375 19.9537 15.9375 19.6875V15H12.4031C12.1156 15 11.8512 15.12 11.61 15.36C11.37 15.6013 11.25 15.8656 11.25 16.1531V36.3469C11.25 36.6344 11.37 36.8988 11.61 37.14C11.8512 37.38 12.1156 37.5 12.4031 37.5ZM17.8125 13.125H27.1875V12.1875C27.1875 10.8675 26.7362 9.75625 25.8337 8.85375C24.9312 7.95125 23.82 7.5 22.5 7.5C21.18 7.5 20.0688 7.95125 19.1663 8.85375C18.2638 9.75625 17.8125 10.8675 17.8125 12.1875V13.125Z" fill="#333333"/>
</svg>
