<svg width="54" height="54" viewBox="0 0 54 54" fill="none" xmlns="http://www.w3.org/2000/svg">
<path d="M27 4.5C14.58 4.5 4.5 14.58 4.5 27C4.5 39.42 14.58 49.5 27 49.5C39.42 49.5 49.5 39.42 49.5 27C49.5 14.58 39.42 4.5 27 4.5ZM37.44 19.8C37.1025 23.355 35.64 31.995 34.8975 35.9775C34.5825 37.665 33.9525 38.2275 33.3675 38.295C32.0625 38.4075 31.0725 37.44 29.8125 36.6075C27.8325 35.3025 26.7075 34.4925 24.795 33.2325C22.5675 31.77 24.0075 30.96 25.29 29.655C25.6275 29.3175 31.3875 24.075 31.5 23.6025C31.5156 23.5309 31.5135 23.4566 31.4939 23.3861C31.4743 23.3155 31.4378 23.2508 31.3875 23.1975C31.2525 23.085 31.0725 23.13 30.915 23.1525C30.7125 23.1975 27.5625 25.29 21.42 29.43C20.52 30.0375 19.71 30.3525 18.99 30.33C18.18 30.3075 16.65 29.88 15.5025 29.4975C14.085 29.0475 12.9825 28.8 13.0725 28.0125C13.1175 27.6075 13.68 27.2025 14.7375 26.775C21.3075 23.9175 25.6725 22.0275 27.855 21.1275C34.11 18.5175 35.3925 18.0675 36.2475 18.0675C36.4275 18.0675 36.855 18.1125 37.125 18.3375C37.35 18.5175 37.4175 18.765 37.44 18.945C37.4175 19.08 37.4625 19.485 37.44 19.8Z" fill="white"/>
</svg>
