<svg width="33" height="38" viewBox="0 0 33 38" fill="none" xmlns="http://www.w3.org/2000/svg">
<path d="M16.0257 38.0002C15.3357 38.0002 14.7757 37.4402 14.7757 36.7502V4.30424L2.16572 17.1262C2.05196 17.2487 1.91481 17.347 1.76237 17.4155C1.60994 17.484 1.44532 17.5213 1.27824 17.5251C1.11116 17.5288 0.945024 17.4991 0.789651 17.4375C0.634277 17.376 0.492822 17.2839 0.373651 17.1667C0.254481 17.0496 0.160015 16.9097 0.0958392 16.7554C0.0316635 16.6011 -0.000918761 16.4355 1.97109e-05 16.2684C0.000958182 16.1012 0.0353981 15.936 0.101303 15.7824C0.167207 15.6289 0.263238 15.4901 0.383717 15.3742L15.1227 0.386243L15.1487 0.359243C15.2802 0.229348 15.439 0.130365 15.6135 0.0694795C15.7881 0.00859406 15.974 -0.0126661 16.1577 0.00724269C16.4584 0.0385833 16.7374 0.178274 16.9427 0.400243L31.6667 15.3742C31.7872 15.4901 31.8832 15.6289 31.9491 15.7824C32.015 15.936 32.0495 16.1012 32.0504 16.2684C32.0514 16.4355 32.0188 16.6011 31.9546 16.7554C31.8904 16.9097 31.796 17.0496 31.6768 17.1667C31.5576 17.2839 31.4162 17.376 31.2608 17.4375C31.1054 17.4991 30.9393 17.5288 30.7722 17.5251C30.6051 17.5213 30.4405 17.484 30.2881 17.4155C30.1356 17.347 29.9985 17.2487 29.8847 17.1262L17.2747 4.30424V36.7502C17.2747 37.4402 16.7167 38.0002 16.0257 38.0002Z" fill="#53377A"/>
</svg>
