<svg width="58" height="58" viewBox="0 0 58 58" fill="none" xmlns="http://www.w3.org/2000/svg">
<path d="M10.295 10.295C7.25 13.369 7.25 18.2845 7.25 28.13V29.87C7.25 39.701 7.25 44.6165 10.295 47.705C13.369 50.75 18.2845 50.75 28.13 50.75H29.87C39.701 50.75 44.6165 50.75 47.705 47.705C50.75 44.631 50.75 39.7155 50.75 29.87V28.13C50.75 18.299 50.75 13.3835 47.705 10.295C44.631 7.25 39.7155 7.25 29.87 7.25H28.13C18.299 7.25 13.3835 7.25 10.295 10.295ZM14.587 20.4885H19.575C19.7345 28.7825 23.3885 32.2915 26.2885 33.0165V20.4885H30.972V27.637C33.8285 27.3325 36.8445 24.07 37.8595 20.474H42.5285C42.1479 22.3355 41.3875 24.0985 40.2948 25.6528C39.202 27.2072 37.8004 28.5194 36.1775 29.5075C37.9886 30.4086 39.5881 31.6835 40.8703 33.2482C42.1525 34.8128 43.0883 36.6316 43.616 38.5845H38.4685C37.3665 35.148 34.6115 32.48 30.972 32.1175V38.5845H30.392C20.474 38.5845 14.819 31.7985 14.587 20.4885Z" fill="white"/>
</svg>
