<svg width="32" height="32" viewBox="0 0 32 32" fill="none" xmlns="http://www.w3.org/2000/svg">
<g id="ph:heart-thin">
<path id="Vector" d="M22.25 4.5C19.57 4.5 17.26 5.77375 16 7.88375C14.74 5.77375 12.43 4.5 9.75 4.5C7.82789 4.50232 5.98517 5.2669 4.62603 6.62603C3.2669 7.98517 2.50232 9.82789 2.5 11.75C2.5 15.3237 4.75 19.0587 9.175 22.8487C11.2181 24.5874 13.4242 26.1249 15.7625 27.44C15.8355 27.4794 15.9171 27.5 16 27.5C16.0829 27.5 16.1645 27.4794 16.2375 27.44C18.5758 26.1249 20.7819 24.5874 22.825 22.8487C27.25 19.0587 29.5 15.3237 29.5 11.75C29.4977 9.82789 28.7331 7.98517 27.374 6.62603C26.0148 5.2669 24.1721 4.50232 22.25 4.5ZM16 26.4275C14.25 25.4325 3.5 19.0087 3.5 11.75C3.50198 10.093 4.1611 8.50445 5.33277 7.33277C6.50445 6.1611 8.09301 5.50198 9.75 5.5C12.3888 5.5 14.6063 6.91375 15.5375 9.18875C15.5752 9.28046 15.6393 9.35889 15.7216 9.41409C15.804 9.46929 15.9009 9.49877 16 9.49877C16.0991 9.49877 16.196 9.46929 16.2784 9.41409C16.3607 9.35889 16.4248 9.28046 16.4625 9.18875C17.3937 6.91375 19.6112 5.5 22.25 5.5C23.907 5.50198 25.4956 6.1611 26.6672 7.33277C27.8389 8.50445 28.498 10.093 28.5 11.75C28.5 19 17.75 25.4325 16 26.4275Z" fill="#F3F3F3"/>
</g>
</svg>
