<svg width="54" height="54" viewBox="0 0 54 54" fill="none" xmlns="http://www.w3.org/2000/svg">
<path d="M34.1367 37.4866V43.8449C34.1367 45.1908 33.6797 45.8638 32.7656 45.8638C32.2266 45.8638 31.6992 45.6429 31.1836 45.2009V36.1306C31.6992 35.6886 32.2266 35.4676 32.7656 35.4676C33.6797 35.4676 34.1367 36.1406 34.1367 37.4866ZM46.0195 37.5167V38.9029H42.8555V37.5167C42.8555 36.1507 43.3828 35.4676 44.4375 35.4676C45.4922 35.4676 46.0195 36.1507 46.0195 37.5167ZM12.0586 30.9475H15.8203V28.115H4.85156V30.9475H8.54297V48.0938H12.0586V30.9475ZM22.1836 48.0938H25.3125V33.2076H22.1836V44.5982C21.4805 45.442 20.8125 45.8638 20.1797 45.8638C19.7578 45.8638 19.5117 45.6529 19.4414 45.231C19.418 45.1708 19.4062 44.8192 19.4062 44.1763V33.2076H16.2773V44.99C16.2773 45.9743 16.3711 46.7076 16.5586 47.1897C16.8398 47.933 17.5195 48.3047 18.5977 48.3047C19.7227 48.3047 20.918 47.692 22.1836 46.4665V48.0938ZM37.2656 43.6339V37.6975C37.2656 36.231 37.1602 35.2366 36.9492 34.7143C36.5508 33.5893 35.7188 33.0268 34.4531 33.0268C33.2812 33.0268 32.1914 33.5692 31.1836 34.654V28.115H28.0547V48.0938H31.1836V46.6473C32.2383 47.7522 33.3281 48.3047 34.4531 48.3047C35.7188 48.3047 36.5508 47.7522 36.9492 46.6473C37.1602 46.1049 37.2656 45.1004 37.2656 43.6339ZM49.1484 43.3326V42.9408H45.9492C45.9492 43.9654 45.9258 44.5781 45.8789 44.779C45.7148 45.5022 45.2461 45.8638 44.4727 45.8638C43.3945 45.8638 42.8555 45.1708 42.8555 43.7846V41.1629H49.1484V38.0592C49.1484 36.4721 48.832 35.3069 48.1992 34.5636C47.2852 33.5391 46.043 33.0268 44.4727 33.0268C42.8789 33.0268 41.625 33.5391 40.7109 34.5636C40.0547 35.3069 39.7266 36.4721 39.7266 38.0592V43.2723C39.7266 44.8594 40.0664 46.0246 40.7461 46.7679C41.6602 47.7924 42.9258 48.3047 44.543 48.3047C46.2305 48.3047 47.4961 47.7723 48.3398 46.7076C48.7617 46.1652 49.0078 45.6228 49.0781 45.0804C49.125 44.8996 49.1484 44.317 49.1484 43.3326ZM27.7734 15.8203V9.49219C27.7734 8.10603 27.2695 7.41295 26.2617 7.41295C25.2539 7.41295 24.75 8.10603 24.75 9.49219V15.8203C24.75 17.2266 25.2539 17.9297 26.2617 17.9297C27.2695 17.9297 27.7734 17.2266 27.7734 15.8203ZM53.0508 38.4509C53.0508 43.1518 52.7461 46.6674 52.1367 48.9978C51.8086 50.183 51.1289 51.1775 50.0977 51.981C49.0664 52.7846 47.8711 53.2467 46.5117 53.3672C42.1992 53.7891 35.6953 54 27 54C18.3047 54 11.8008 53.7891 7.48828 53.3672C6.12891 53.2467 4.92773 52.7846 3.88477 51.981C2.8418 51.1775 2.16797 50.183 1.86328 48.9978C1.25391 46.7478 0.949219 43.2321 0.949219 38.4509C0.949219 33.75 1.25391 30.2344 1.86328 27.904C2.19141 26.7188 2.87109 25.7243 3.90234 24.9208C4.93359 24.1172 6.14062 23.6451 7.52344 23.5045C11.8125 23.1027 18.3047 22.9018 27 22.9018C35.6953 22.9018 42.1992 23.1027 46.5117 23.5045C47.8711 23.6451 49.0723 24.1172 50.1152 24.9208C51.1582 25.7243 51.832 26.7188 52.1367 27.904C52.7461 30.154 53.0508 33.6696 53.0508 38.4509ZM17.9648 0H21.5508L17.2969 12.0234V20.1897H13.7812V12.0234C13.4531 10.5368 12.7383 8.40737 11.6367 5.63504C10.7695 3.56585 10.0078 1.6875 9.35156 0H13.0781L15.5742 7.92522L17.9648 0ZM30.9727 10.0346V15.308C30.9727 16.9353 30.6445 18.1205 29.9883 18.8638C29.0977 19.8884 27.8555 20.4007 26.2617 20.4007C24.6914 20.4007 23.4609 19.8884 22.5703 18.8638C21.9141 18.1004 21.5859 16.9152 21.5859 15.308V10.0346C21.5859 8.42746 21.9141 7.25223 22.5703 6.50893C23.4609 5.48438 24.6914 4.9721 26.2617 4.9721C27.8555 4.9721 29.0977 5.48438 29.9883 6.50893C30.6445 7.25223 30.9727 8.42746 30.9727 10.0346ZM42.75 5.1529V20.1897H39.5508V18.5324C38.3086 19.7779 37.1016 20.4007 35.9297 20.4007C34.8516 20.4007 34.1602 20.029 33.8555 19.2857C33.668 18.8036 33.5742 18.0502 33.5742 17.0257V5.1529H36.7734V16.2121C36.7734 16.875 36.7852 17.2266 36.8086 17.2667C36.8789 17.7087 37.125 17.9297 37.5469 17.9297C38.1797 17.9297 38.8477 17.4978 39.5508 16.6339V5.1529H42.75Z" fill="white"/>
</svg>
